<mxfile host="app.diagrams.net" agent="Mozilla/5.0 (X11; Linux x86_64; rv:109.0) Gecko/20100101 Firefox/115.0" version="24.7.16">
  <diagram name="Page-1" id="WY1lAtMPeV77R4tWPfGz">
    <mxGraphModel dx="1007" dy="523" grid="1" gridSize="10" guides="1" tooltips="1" connect="1" arrows="1" fold="1" page="1" pageScale="1" pageWidth="850" pageHeight="1100" math="0" shadow="0">
      <root>
        <mxCell id="0" />
        <mxCell id="1" parent="0" />
        <mxCell id="APidVruMiCrXzp1fweX4-1" value="S&#39;authentifier" style="ellipse;whiteSpace=wrap;html=1;fillColor=#cdeb8b;strokeColor=#36393d;" vertex="1" parent="1">
          <mxGeometry x="480" y="150" width="120" height="70" as="geometry" />
        </mxCell>
        <mxCell id="APidVruMiCrXzp1fweX4-2" value="&amp;lt;&amp;lt;include&amp;gt;&amp;gt;" style="endArrow=open;endSize=12;dashed=1;html=1;rounded=0;exitX=1;exitY=0.5;exitDx=0;exitDy=0;" edge="1" parent="1" source="APidVruMiCrXzp1fweX4-21" target="APidVruMiCrXzp1fweX4-1">
          <mxGeometry width="160" relative="1" as="geometry">
            <mxPoint x="329.5" y="27.5" as="sourcePoint" />
            <mxPoint x="920.5" y="42.5" as="targetPoint" />
          </mxGeometry>
        </mxCell>
        <mxCell id="APidVruMiCrXzp1fweX4-3" value="" style="endArrow=none;html=1;rounded=0;" edge="1" parent="1" source="APidVruMiCrXzp1fweX4-4" target="APidVruMiCrXzp1fweX4-21">
          <mxGeometry relative="1" as="geometry">
            <mxPoint x="80" y="70" as="sourcePoint" />
            <mxPoint x="198.31878123554907" y="-44.22138033148897" as="targetPoint" />
          </mxGeometry>
        </mxCell>
        <mxCell id="APidVruMiCrXzp1fweX4-4" value="Admin" style="shape=umlActor;verticalLabelPosition=bottom;verticalAlign=top;html=1;outlineConnect=0;fillColor=#e1d5e7;strokeColor=#9673a6;" vertex="1" parent="1">
          <mxGeometry x="30" y="35" width="50" height="80" as="geometry" />
        </mxCell>
        <mxCell id="APidVruMiCrXzp1fweX4-7" value="&amp;lt;&amp;lt;include&amp;gt;&amp;gt;" style="endArrow=open;endSize=12;dashed=1;html=1;rounded=0;exitX=0.974;exitY=0.433;exitDx=0;exitDy=0;exitPerimeter=0;entryX=0.067;entryY=0.814;entryDx=0;entryDy=0;entryPerimeter=0;" edge="1" parent="1" source="APidVruMiCrXzp1fweX4-5" target="APidVruMiCrXzp1fweX4-1">
          <mxGeometry width="160" relative="1" as="geometry">
            <mxPoint x="360" y="80" as="sourcePoint" />
            <mxPoint x="500" y="180" as="targetPoint" />
          </mxGeometry>
        </mxCell>
        <mxCell id="APidVruMiCrXzp1fweX4-18" value="Profil d&#39;entreprise" style="shape=umlActor;verticalLabelPosition=bottom;verticalAlign=top;html=1;outlineConnect=0;fillColor=#e1d5e7;strokeColor=#9673a6;" vertex="1" parent="1">
          <mxGeometry x="30" y="230" width="50" height="80" as="geometry" />
        </mxCell>
        <mxCell id="APidVruMiCrXzp1fweX4-19" value="" style="swimlane;startSize=0;" vertex="1" parent="1">
          <mxGeometry x="100" y="20" width="510" height="320" as="geometry" />
        </mxCell>
        <mxCell id="APidVruMiCrXzp1fweX4-21" value="Exporter les factures ses commandes payées" style="ellipse;whiteSpace=wrap;html=1;fillColor=#dae8fc;strokeColor=#6c8ebf;" vertex="1" parent="APidVruMiCrXzp1fweX4-19">
          <mxGeometry x="110" y="20" width="140" height="70" as="geometry" />
        </mxCell>
        <mxCell id="APidVruMiCrXzp1fweX4-22" value="format pdf" style="ellipse;whiteSpace=wrap;html=1;fillColor=#ffe6cc;strokeColor=#d79b00;" vertex="1" parent="APidVruMiCrXzp1fweX4-19">
          <mxGeometry x="60" y="140" width="100" height="50" as="geometry" />
        </mxCell>
        <mxCell id="APidVruMiCrXzp1fweX4-23" value="format csv" style="ellipse;whiteSpace=wrap;html=1;fillColor=#ffe6cc;strokeColor=#d79b00;" vertex="1" parent="APidVruMiCrXzp1fweX4-19">
          <mxGeometry x="200" y="140" width="100" height="50" as="geometry" />
        </mxCell>
        <mxCell id="APidVruMiCrXzp1fweX4-25" style="rounded=0;orthogonalLoop=1;jettySize=auto;html=1;endArrow=open;endFill=0;dashed=1;exitX=0.446;exitY=0.05;exitDx=0;exitDy=0;exitPerimeter=0;entryX=0.638;entryY=0.994;entryDx=0;entryDy=0;entryPerimeter=0;" edge="1" parent="APidVruMiCrXzp1fweX4-19" source="APidVruMiCrXzp1fweX4-23" target="APidVruMiCrXzp1fweX4-21">
          <mxGeometry relative="1" as="geometry">
            <mxPoint x="97" y="119" as="sourcePoint" />
            <mxPoint x="140" y="80" as="targetPoint" />
          </mxGeometry>
        </mxCell>
        <mxCell id="APidVruMiCrXzp1fweX4-26" value="&amp;lt;&amp;lt;extends&amp;gt;&amp;gt;" style="edgeLabel;html=1;align=center;verticalAlign=middle;resizable=0;points=[];" vertex="1" connectable="0" parent="APidVruMiCrXzp1fweX4-25">
          <mxGeometry x="0.4488" y="1" relative="1" as="geometry">
            <mxPoint x="-15" y="9" as="offset" />
          </mxGeometry>
        </mxCell>
        <mxCell id="APidVruMiCrXzp1fweX4-16" style="rounded=0;orthogonalLoop=1;jettySize=auto;html=1;endArrow=open;endFill=0;dashed=1;exitX=0.566;exitY=-0.017;exitDx=0;exitDy=0;exitPerimeter=0;entryX=0.321;entryY=0.96;entryDx=0;entryDy=0;entryPerimeter=0;" edge="1" parent="APidVruMiCrXzp1fweX4-19" source="APidVruMiCrXzp1fweX4-22" target="APidVruMiCrXzp1fweX4-21">
          <mxGeometry relative="1" as="geometry">
            <mxPoint x="62" y="129" as="sourcePoint" />
            <mxPoint x="130" y="70" as="targetPoint" />
          </mxGeometry>
        </mxCell>
        <mxCell id="APidVruMiCrXzp1fweX4-17" value="&amp;lt;&amp;lt;extends&amp;gt;&amp;gt;" style="edgeLabel;html=1;align=center;verticalAlign=middle;resizable=0;points=[];" vertex="1" connectable="0" parent="APidVruMiCrXzp1fweX4-16">
          <mxGeometry x="0.4488" y="1" relative="1" as="geometry">
            <mxPoint x="-15" y="9" as="offset" />
          </mxGeometry>
        </mxCell>
        <mxCell id="APidVruMiCrXzp1fweX4-5" value="Exporter les factures des commandes payées" style="ellipse;whiteSpace=wrap;html=1;fillColor=#dae8fc;strokeColor=#6c8ebf;" vertex="1" parent="APidVruMiCrXzp1fweX4-19">
          <mxGeometry x="110" y="240" width="140" height="70" as="geometry" />
        </mxCell>
        <mxCell id="APidVruMiCrXzp1fweX4-29" style="rounded=0;orthogonalLoop=1;jettySize=auto;html=1;endArrow=open;endFill=0;dashed=1;" edge="1" parent="APidVruMiCrXzp1fweX4-19" source="APidVruMiCrXzp1fweX4-22" target="APidVruMiCrXzp1fweX4-5">
          <mxGeometry relative="1" as="geometry">
            <mxPoint x="54.78" y="176.12" as="sourcePoint" />
            <mxPoint x="109.99704148597485" y="190.00147236893167" as="targetPoint" />
          </mxGeometry>
        </mxCell>
        <mxCell id="APidVruMiCrXzp1fweX4-30" value="&amp;lt;&amp;lt;extends&amp;gt;&amp;gt;" style="edgeLabel;html=1;align=center;verticalAlign=middle;resizable=0;points=[];" vertex="1" connectable="0" parent="APidVruMiCrXzp1fweX4-29">
          <mxGeometry x="0.4488" y="1" relative="1" as="geometry">
            <mxPoint x="-15" y="-12" as="offset" />
          </mxGeometry>
        </mxCell>
        <mxCell id="APidVruMiCrXzp1fweX4-31" style="rounded=0;orthogonalLoop=1;jettySize=auto;html=1;endArrow=open;endFill=0;dashed=1;exitX=0.3;exitY=1;exitDx=0;exitDy=0;exitPerimeter=0;entryX=0.69;entryY=0.053;entryDx=0;entryDy=0;entryPerimeter=0;" edge="1" parent="APidVruMiCrXzp1fweX4-19" source="APidVruMiCrXzp1fweX4-23" target="APidVruMiCrXzp1fweX4-5">
          <mxGeometry relative="1" as="geometry">
            <mxPoint x="138" y="198" as="sourcePoint" />
            <mxPoint x="165" y="232" as="targetPoint" />
          </mxGeometry>
        </mxCell>
        <mxCell id="APidVruMiCrXzp1fweX4-32" value="&amp;lt;&amp;lt;extends&amp;gt;&amp;gt;" style="edgeLabel;html=1;align=center;verticalAlign=middle;resizable=0;points=[];" vertex="1" connectable="0" parent="APidVruMiCrXzp1fweX4-31">
          <mxGeometry x="0.4488" y="1" relative="1" as="geometry">
            <mxPoint x="-15" y="-12" as="offset" />
          </mxGeometry>
        </mxCell>
        <mxCell id="APidVruMiCrXzp1fweX4-6" value="" style="endArrow=none;html=1;rounded=0;entryX=0.008;entryY=0.42;entryDx=0;entryDy=0;entryPerimeter=0;" edge="1" parent="1" source="APidVruMiCrXzp1fweX4-18" target="APidVruMiCrXzp1fweX4-5">
          <mxGeometry relative="1" as="geometry">
            <mxPoint x="80" y="294.66" as="sourcePoint" />
            <mxPoint x="220" y="294.66" as="targetPoint" />
          </mxGeometry>
        </mxCell>
      </root>
    </mxGraphModel>
  </diagram>
</mxfile>
